<svg width="21" height="21" viewBox="0 0 21 21" fill="none" xmlns="http://www.w3.org/2000/svg">
<path d="M10.9775 6.87122C10.4471 6.87122 9.9384 6.6605 9.56333 6.28543C9.18825 5.91036 8.97754 5.40165 8.97754 4.87122C8.97754 4.34078 9.18825 3.83207 9.56333 3.457C9.9384 3.08193 10.4471 2.87122 10.9775 2.87122C11.508 2.87122 12.0167 3.08193 12.3918 3.457C12.7668 3.83207 12.9775 4.34078 12.9775 4.87122C12.9775 5.40165 12.7668 5.91036 12.3918 6.28543C12.0167 6.6605 11.508 6.87122 10.9775 6.87122ZM10.9775 12.8712C10.4471 12.8712 9.9384 12.6605 9.56333 12.2854C9.18825 11.9104 8.97754 11.4016 8.97754 10.8712C8.97754 10.3408 9.18825 9.83208 9.56333 9.457C9.9384 9.08193 10.4471 8.87122 10.9775 8.87122C11.508 8.87122 12.0167 9.08193 12.3918 9.457C12.7668 9.83208 12.9775 10.3408 12.9775 10.8712C12.9775 11.4016 12.7668 11.9104 12.3918 12.2854C12.0167 12.6605 11.508 12.8712 10.9775 12.8712ZM10.9775 18.8712C10.4471 18.8712 9.9384 18.6605 9.56333 18.2854C9.18825 17.9104 8.97754 17.4016 8.97754 16.8712C8.97754 16.3408 9.18825 15.8321 9.56333 15.457C9.9384 15.0819 10.4471 14.8712 10.9775 14.8712C11.508 14.8712 12.0167 15.0819 12.3918 15.457C12.7668 15.8321 12.9775 16.3408 12.9775 16.8712C12.9775 17.4016 12.7668 17.9104 12.3918 18.2854C12.0167 18.6605 11.508 18.8712 10.9775 18.8712Z" fill="black"/>
</svg>
